<svg data-name="Layer 1" xmlns="http://www.w3.org/2000/svg" width="940.67538" height="433.96214" viewBox="0 0 940.67538 433.96214" xmlns:xlink="http://www.w3.org/1999/xlink"><path d="M934.835,665.01893H413.34668a20.27914,20.27914,0,0,1-20.25635-20.25586V253.27479a20.27913,20.27913,0,0,1,20.25635-20.25586H934.835a20.279,20.279,0,0,1,20.25586,20.25586V644.76307A20.279,20.279,0,0,1,934.835,665.01893Z" transform="translate(-129.66231 -233.01893)" fill="#e4e4e4"/><path d="M803.58673,412.76872H723.08648a15,15,0,0,1,0-30h80.50025a15,15,0,0,1,0,30Z" transform="translate(-129.66231 -233.01893)" fill="#fff"/><path d="M733.08659,453.76875h-19a5.5,5.5,0,0,1,0-11h19a5.5,5.5,0,0,1,0,11Z" transform="translate(-129.66231 -233.01893)" fill="#fff"/><path d="M812.08659,453.76875h-19a5.5,5.5,0,0,1,0-11h19a5.5,5.5,0,0,1,0,11Z" transform="translate(-129.66231 -233.01893)" fill="#fff"/><path d="M772.08659,453.76875h-19a5.5,5.5,0,0,1,0-11h19a5.5,5.5,0,0,1,0,11Z" transform="translate(-129.66231 -233.01893)" fill="#fff"/><path d="M733.08659,474.76875h-19a5.5,5.5,0,0,1,0-11h19a5.5,5.5,0,0,1,0,11Z" transform="translate(-129.66231 -233.01893)" fill="#fff"/><path d="M812.08659,474.76875h-19a5.5,5.5,0,0,1,0-11h19a5.5,5.5,0,0,1,0,11Z" transform="translate(-129.66231 -233.01893)" fill="#fff"/><path d="M772.08659,474.76875h-19a5.5,5.5,0,0,1,0-11h19a5.5,5.5,0,0,1,0,11Z" transform="translate(-129.66231 -233.01893)" fill="#fff"/><path d="M733.08659,495.76875h-19a5.5,5.5,0,0,1,0-11h19a5.5,5.5,0,0,1,0,11Z" transform="translate(-129.66231 -233.01893)" fill="#fff"/><path d="M812.08659,495.76875h-19a5.5,5.5,0,0,1,0-11h19a5.5,5.5,0,0,1,0,11Z" transform="translate(-129.66231 -233.01893)" fill="#fff"/><path d="M772.08659,495.76875h-19a5.5,5.5,0,0,1,0-11h19a5.5,5.5,0,0,1,0,11Z" transform="translate(-129.66231 -233.01893)" fill="#fff"/><path d="M733.08659,516.76875h-19a5.5,5.5,0,0,1,0-11h19a5.5,5.5,0,1,1,0,11Z" transform="translate(-129.66231 -233.01893)" fill="#fff"/><path d="M812.08659,516.76875h-19a5.5,5.5,0,0,1,0-11h19a5.5,5.5,0,1,1,0,11Z" transform="translate(-129.66231 -233.01893)" fill="#fff"/><path d="M772.08659,516.76875h-19a5.5,5.5,0,0,1,0-11h19a5.5,5.5,0,1,1,0,11Z" transform="translate(-129.66231 -233.01893)" fill="#fff"/><circle cx="474.92428" cy="210.74982" r="51" fill="#cacaca"/><path d="M604.58661,506.26872a15.017,15.017,0,0,1-15-15v-95a14.99994,14.99994,0,1,1,29.99987,0v95A15.017,15.017,0,0,1,604.58661,506.26872Z" transform="translate(-129.66231 -233.01893)" fill="#fff"/><path d="M737.82281,406.3278h-14a2,2,0,0,1,0-4h14a2,2,0,1,1,0,4Z" transform="translate(-129.66231 -233.01893)" fill="#e4e4e4"/><path d="M759.82281,406.8278h-14a2,2,0,0,1,0-4h14a2,2,0,1,1,0,4Z" transform="translate(-129.66231 -233.01893)" fill="#e4e4e4"/><path d="M781.82281,407.3278h-14a2,2,0,0,1,0-4h14a2,2,0,1,1,0,4Z" transform="translate(-129.66231 -233.01893)" fill="#e4e4e4"/><path d="M803.82281,407.8278h-14a2,2,0,0,1,0-4h14a2,2,0,1,1,0,4Z" transform="translate(-129.66231 -233.01893)" fill="#e4e4e4"/><path d="M459.58654,603.26779a18.69348,18.69348,0,0,0,5.56006,13.31h-8.26077a18.55905,18.55905,0,0,1-18.55906-18.55906V297.13684a18.55905,18.55905,0,0,1,18.55906-18.55905h12.021a18.74383,18.74383,0,0,0-9.32031,16.2Z" transform="translate(-129.66231 -233.01893)" fill="#cacaca"/><path d="M457.58654,361.28781v99.81c.67041-.22,1.34033-.43,2-.63v-98.27C458.91662,361.88779,458.257,361.5878,457.58654,361.28781Zm0,0v99.81c.67041-.22,1.34033-.43,2-.63v-98.27C458.91662,361.88779,458.257,361.5878,457.58654,361.28781Zm0,0v99.81c.67041-.22,1.34033-.43,2-.63v-98.27C458.91662,361.88779,458.257,361.5878,457.58654,361.28781Zm0,7.29v115.01c.67041-.16,1.34033-.31,2-.46v-113.98C458.91662,368.94778,458.24669,368.75778,457.58654,368.57779Zm0,0v115.01c.67041-.16,1.34033-.31,2-.46v-113.98C458.91662,368.94778,458.24669,368.75778,457.58654,368.57779Zm0,0v115.01c.67041-.16,1.34033-.31,2-.46v-113.98C458.91662,368.94778,458.24669,368.75778,457.58654,368.57779Zm0,0v115.01c.67041-.16,1.34033-.31,2-.46v-113.98C458.91662,368.94778,458.24669,368.75778,457.58654,368.57779Zm0,0v116.05c.67041-.16,1.33008-.32,2-.47v-115.01C458.91662,368.94778,458.24669,368.75778,457.58654,368.57779Zm436.25-94.56H478.34679a20.79476,20.79476,0,0,0-20.76025,20.76v308.49a20.78542,20.78542,0,0,0,20.76025,20.75H893.83654a20.77527,20.77527,0,0,0,20.75-20.75v-308.49A20.77739,20.77739,0,0,0,893.83654,274.01779Zm18.75,329.25a18.76944,18.76944,0,0,1-18.75,18.75H478.34679a18.77786,18.77786,0,0,1-18.76025-18.75v-308.49a18.78835,18.78835,0,0,1,18.76025-18.76H893.83654a18.77157,18.77157,0,0,1,18.75,18.76Zm-455-234.69v114c.67041-.16,1.33008-.32,2-.48v-112.95C458.91662,368.94778,458.24669,368.75778,457.58654,368.57779Zm0,0v115.01c.67041-.16,1.34033-.31,2-.46v-113.98C458.91662,368.94778,458.24669,368.75778,457.58654,368.57779Zm0,0v115.01c.67041-.16,1.34033-.31,2-.46v-113.98C458.91662,368.94778,458.24669,368.75778,457.58654,368.57779Zm0,0v115.01c.67041-.16,1.34033-.31,2-.46v-113.98C458.91662,368.94778,458.24669,368.75778,457.58654,368.57779Zm0-7.29v99.81c.67041-.22,1.34033-.43,2-.63v-98.27C458.91662,361.88779,458.257,361.5878,457.58654,361.28781Zm0,0v99.81c.67041-.22,1.34033-.43,2-.63v-98.27C458.91662,361.88779,458.257,361.5878,457.58654,361.28781Z" transform="translate(-129.66231 -233.01893)" fill="#2f2e41"/></svg>