<svg version="1.1" xmlns="http://www.w3.org/2000/svg" width="512" height="512">
  <circle cx="142" cy="132" r="92" fill="#f7ebc0"/> 
  <circle cx="15" cy="59" r="12" fill="#f7ebc0"/>     
  <path d="M 15 47 Q 50 52, 123 42 L 54 159 Q 50 142, 6 67 L 15 47" fill="#f7ebc0" />
  
  <circle cx="372" cy="132" r="92" fill="#99f5d1" /> 
  <circle cx="500" cy="59" r="12" fill="#99f5d1" />     
  <path d="M 498 47  Q 460 52, 390 42 L 461 155 Q 460 142, 509 67 L 498 47" fill="#99f5d1"  />

  <circle cx="259" cy="326" r="92" fill="#93c5fd" /> 
  <circle cx="259" cy="473" r="12" fill="#93c5fd"  />     
  <path d="M 248 478 Q 226 430, 185 380 L 333 380Q 294 430,270 477 L 248 478" fill="#93c5fd"  />
</svg>
